<svg id="Layer_1" data-name="Layer 1" xmlns="http://www.w3.org/2000/svg" viewBox="0 0 300 60"><defs><style>.cls-1{font-size:6.9px;font-family:CreatoDisplay-Regular, Creato Display;letter-spacing:0.2em;}.cls-1,.cls-4,.cls-5{fill:#1f602a;}.cls-2{letter-spacing:0.22em;}.cls-3{letter-spacing:0.17em;}.cls-4{font-size:48.85px;font-family:Nelphim-Regular, Nelphim ;}</style></defs><text class="cls-1" transform="translate(98.46 54.27)">WHERE PURI<tspan class="cls-2" x="54.42" y="0">T</tspan><tspan x="59.92" y="0">Y MEE</tspan><tspan class="cls-3" x="87.23" y="0">T</tspan><tspan x="92.42" y="0">S RADIANCE </tspan></text><text class="cls-4" transform="translate(89.03 43.38)">NIMORA</text><path class="cls-5" d="M59.69,47.21c-11.35,0-21-9.84-21-21.3,0-11.11,8.4-21.12,22.1-20.79,12.28.3,20.47,9.72,20.55,20.11A21.52,21.52,0,0,1,59.69,47.21ZM45,17.64a1.91,1.91,0,0,1,0,1.66,17.76,17.76,0,0,0,1.28,12c5.3,12,20.56,12.73,27.42,6.63a17,17,0,0,0,5.87-9.63c1.14-6.2-1.08-11.45-5.22-15.82-4-4.21-9.11-5.93-15-5.79a18.06,18.06,0,0,0-17.22,14.6C39.91,32.88,50.49,45.11,63.2,43.17c-8.45.36-14.52-3.41-18.28-10.83A15.54,15.54,0,0,1,45,17.64Z"/><path class="cls-5" d="M69,32.37a8.72,8.72,0,0,1-1.07-5.72c-.62.19-.4,1.13-1,.91s-.63-.8-.73-1.3c-.22-1.14.32-2.17.64-3.37-.64.31-.77.83-1,1.24-.14.21-.19.55-.49.54s-.41-.39-.51-.67a5.57,5.57,0,0,1,3.82-7c.25-.07.5-.12.75-.17,3.4-.66,3.32-.53,3.17,2.87-.24,5.39-1.09,10.8-.16,16.21.19,1.07-.42,1.25-1.25,1.29a12.67,12.67,0,0,1-11.43-5.8,50.47,50.47,0,0,1-4-7.36,33,33,0,0,0-6.89-9.11c-.26-.26-.77-.49-.57-.91s.71-.22,1.07-.17A18.15,18.15,0,0,1,61.92,21c2.48,3.19,3.93,7,6.12,10.32A2.38,2.38,0,0,0,69,32.37ZM57.25,20.07c3.18,3.71,5.38,8.05,7.83,12.22a2.82,2.82,0,0,0,1.29,1.27C63.61,28.66,61.24,23.83,57.25,20.07Z"/><path class="cls-5" d="M48.59,26.22A62.9,62.9,0,0,1,49,18.11c.05-.4-.07-1,.44-1.11s.74.37,1,.67a21.27,21.27,0,0,1,5.6,13.16c.12,1.62,0,3.27,0,4.9,0,1.09-.37,1.45-1.5,1.18-4.29-1-5.88-3-6.06-7.85C48.56,28.12,48.59,27.17,48.59,26.22Z"/><path class="cls-5" d="M59.79,7.83c3.53-1.95,12,2.26,15.63,7.69,4.27,6.33,3.7,14.92.75,18A6.91,6.91,0,0,1,76.48,31,18.53,18.53,0,0,0,73,14.53c-3-3.82-7.18-5.64-11.91-6.31C60.63,8.16,60.11,8.32,59.79,7.83Z"/></svg>